<svg xmlns="http://www.w3.org/2000/svg" width="95.551" height="92.128" viewBox="0 0 95.551 92.128">
  <g id="Group_59" data-name="Group 59" transform="translate(0 0)">
    <g id="undraw_male_avatar_323b">
      <path id="Path_389" data-name="Path 389" d="M357.551,158.062A44.493,44.493,0,0,1,353.7,176.2l-.158.352c-8.866,19.446-30.357,30.543-52.06,26.881q-.43-.074-.859-.153a48.687,48.687,0,0,1-8.642-2.457q-.681-.264-1.351-.546c-.305-.128-.611-.26-.913-.4-16.895-7.549-27.71-23.865-27.72-41.818C262,132.623,283.39,112,309.775,112S357.551,132.623,357.551,158.062Z" transform="translate(-262 -112)" fill="#e96770"/>
      <path id="Path_390" data-name="Path 390" d="M418.168,390.3q-.43-.074-.859-.153a182.845,182.845,0,0,0-3.011-27.159,97.941,97.941,0,0,0-5.152-18.066,55.275,55.275,0,0,0-2.7-5.7,29.815,29.815,0,0,0-8.56-10.207l.5-.662a28.854,28.854,0,0,1,7.664,8.46q1.02,1.631,1.959,3.481,1.007,1.979,1.921,4.2.583,1.415,1.127,2.927a103.185,103.185,0,0,1,4.023,14.988q.367,1.86.7,3.812A186.524,186.524,0,0,1,418.168,390.3Z" transform="translate(-378.682 -298.866)" opacity="0.2"/>
      <path id="Path_391" data-name="Path 391" d="M410.466,617.2c-.305-.128-.611-.26-.913-.4a64.708,64.708,0,0,0-1.83-10.574,33.828,33.828,0,0,0-1.669-4.8,14.426,14.426,0,0,0-4.493-6.067l.5-.661a15.109,15.109,0,0,1,4.7,6.206,41.406,41.406,0,0,1,2.814,9.563C410.015,612.88,410.292,615.209,410.466,617.2Z" transform="translate(-381.834 -528.918)" opacity="0.2"/>
      <ellipse id="Ellipse_68" data-name="Ellipse 68" cx="4.253" cy="4.1" rx="4.253" ry="4.1" transform="translate(10.201 21.926)" opacity="0.2"/>
      <ellipse id="Ellipse_69" data-name="Ellipse 69" cx="4.253" cy="4.1" rx="4.253" ry="4.1" transform="translate(11.571 57.224)" opacity="0.2"/>
      <path id="Path_392" data-name="Path 392" d="M482.29,300.173a17.624,17.624,0,0,0,1.089,9.348,18.025,18.025,0,0,0,4.355-8.417,17.625,17.625,0,0,0-1.089-9.348A18.026,18.026,0,0,0,482.29,300.173Z" transform="translate(-450.952 -267.259)" opacity="0.2"/>
      <path id="Path_393" data-name="Path 393" d="M336.062,401.388a19.664,19.664,0,0,0,9.73.613,18.891,18.891,0,0,0-7.845-5.583,19.664,19.664,0,0,0-9.73-.613A18.891,18.891,0,0,0,336.062,401.388Z" transform="translate(-318.857 -356.829)" opacity="0.2"/>
      <path id="Path_394" data-name="Path 394" d="M344.522,641.862a13.715,13.715,0,0,0,6.825.417,13.173,13.173,0,0,0-5.494-3.926,13.715,13.715,0,0,0-6.825-.417A13.173,13.173,0,0,0,344.522,641.862Z" transform="translate(-328.14 -566.045)" opacity="0.2"/>
      <ellipse id="Ellipse_70" data-name="Ellipse 70" cx="18.625" cy="17.957" rx="18.625" ry="17.957" transform="translate(29.052 20.348)" fill="#d0cde1"/>
      <path id="Path_395" data-name="Path 395" d="M547.833,458.4s2.328,10.662,2.328,11.785,11.059,6.173,11.059,6.173l9.895-1.684,3.492-10.1s-5.82-8.418-5.82-11.785Z" transform="translate(-507.432 -406.345)" fill="#d0cde1"/>
      <path id="Path_396" data-name="Path 396" d="M461.241,526.25l-.158.352c-8.866,19.446-30.357,30.543-52.06,26.881q-.43-.074-.859-.153a48.688,48.688,0,0,1-8.642-2.457q-.681-.264-1.351-.547c-.305-.128-.611-.26-.913-.4a48.167,48.167,0,0,1-7.809-4.4l-2.208-6.175,1.241-.913,2.553-1.879,2.724-2,.708-.522,10.687-7.866.789-.581L411.5,521.5h0s6.007,9.437,14.738,6.631a11.6,11.6,0,0,0,8.54-10.852Z" transform="translate(-369.538 -462.049)" fill="#2f2e41"/>
      <path id="Path_397" data-name="Path 397" d="M458.425,223.984s5.914-12.353,17.248-9.5,17.74,7.127,18.233,11.4a58.836,58.836,0,0,1-.246,10.69s-1.232-8.79-9.117-6.889-20.2.475-20.2.475l-1.971,17.1s-2.218-3.088-4.682-1.188S450.541,227.785,458.425,223.984Z" transform="translate(-426.9 -200.147)" fill="#2f2e41"/>
      <path id="Path_398" data-name="Path 398" d="M385.165,690.787q-.681-.264-1.351-.547c-.305-.128-.611-.26-.913-.4a48.048,48.048,0,0,1-12.381-8,16.384,16.384,0,0,1,2.363-2.574h8.731l1.309,4.244Z" transform="translate(-355.181 -601.963)" fill="#2f2e41"/>
      <path id="Path_399" data-name="Path 399" d="M853.433,576.32l7.49,1.276a45.887,45.887,0,0,1-8.023,12.07Z" transform="translate(-769.378 -513.043)" fill="#2f2e41"/>
    </g>
  </g>
</svg>
