<svg id="Group_62" data-name="Group 62" xmlns="http://www.w3.org/2000/svg" width="95.55" height="80.2" viewBox="0 0 95.55 80.2">
  <g id="Group_64" data-name="Group 64">
    <g id="undraw_female_avatar_w3jk">
      <path id="Path_400" data-name="Path 400" d="M357.549,152.1a34.453,34.453,0,0,1-3.47,15.032l-.016.031h0a38.772,38.772,0,0,1-6.048,8.974q-.715.8-1.474,1.568c-.185.187-.373.374-.561.558q-1.452,1.415-3.056,2.711-.373.3-.755.6l-.178.138a47.024,47.024,0,0,1-3.908,2.693q-1.368.849-2.807,1.612-.316.169-.636.332-.555.285-1.121.556-.738.356-1.494.689c-.2.091-.408.179-.613.267-.3.129-.6.254-.9.376l-.157.063c-.2.081-.4.159-.6.237a53.6,53.6,0,0,1-8.122,2.419l-.045.009c-.182.039-.366.077-.55.114-.137.028-.276.056-.414.082a.412.412,0,0,1-.052.011c-.284.056-.568.109-.855.158l-.483.084c-.1.018-.2.033-.294.049l-.367.059c-.068.012-.136.021-.2.031l-.465.07c-.263.038-.529.075-.793.108-.192.025-.383.049-.575.071-.226.027-.452.052-.68.076-.062.008-.124.014-.187.02l-.242.025c-.163.017-.325.032-.489.046l-.253.023q-.242.021-.483.039c-.208.017-.416.031-.625.045-.254.017-.507.032-.763.045l-.493.024c-.421.019-.842.032-1.266.042-.211,0-.423.008-.635.011h0c-.211,0-.423,0-.635,0a56.983,56.983,0,0,1-6.424-.361q-2.343-.263-4.611-.714c-.061-.012-.122-.024-.181-.037-.153-.03-.3-.062-.455-.094l-.4-.088a53.231,53.231,0,0,1-9.979-3.226l-.048-.021c-.092-.04-.182-.079-.273-.121q-.3-.132-.6-.268-1.686-.778-3.285-1.663-.411-.226-.814-.459l-.256-.149-.266-.157q-.35-.208-.7-.421-1.431-.883-2.777-1.852a43.765,43.765,0,0,1-8.362-7.812q-1.24-1.516-2.315-3.13A35.027,35.027,0,0,1,262,152.1c0-22.146,21.39-40.1,47.775-40.1S357.549,129.954,357.549,152.1Z" transform="translate(-262 -112)" fill="#e96770"/>
      <path id="Path_401" data-name="Path 401" d="M654.35,368.55c.153-.03.3-.062.455-.094l.4-.088c.007-.236.017-.5.027-.777.083-2.2.28-5.747.744-10.018q.038-.343.076-.692c.165-1.447.359-2.97.591-4.547.007-.052.016-.1.023-.155.188-1.279.4-2.592.642-3.931q.252-1.4.546-2.839l.042-.2c.057-.276.114-.552.174-.829q.248-1.159.527-2.327c.652-2.733,1.428-5.483,2.353-8.159a58.83,58.83,0,0,1,3.467-8.14,38.6,38.6,0,0,1,3.78-5.912l.064-.081a24.818,24.818,0,0,1,6.409-5.836l-.5-.577a25.63,25.63,0,0,0-6.394,5.706l-.028.034a37.611,37.611,0,0,0-3.805,5.725,56.576,56.576,0,0,0-3.63,8.23,85.175,85.175,0,0,0-2.495,8.491q-.388,1.611-.741,3.3l-.119.578s0,.006,0,.008c-.061.3-.119.593-.178.893q-.22,1.134-.415,2.249-.3,1.719-.544,3.379-.081.548-.156,1.088-.106.762-.2,1.5-.134,1.032-.245,2.02l-.021.182-.034.312C654.586,362.246,654.406,366.442,654.35,368.55Z" transform="translate(-598.893 -289.462)" opacity="0.2"/>
      <path id="Path_402" data-name="Path 402" d="M731.01,599.894l.048-.021c.291-.127.58-.256.868-.389.095-.947.222-1.987.389-3.081.035-.225.071-.454.11-.685.02-.123.041-.248.062-.374.167-.963.365-1.958.6-2.957.965-4.076,2.568-8.243,5.23-10.815.143-.139.288-.272.44-.4a9.268,9.268,0,0,1,1.217-.9l-.5-.575a10.447,10.447,0,0,0-1.668,1.28q-.265.247-.517.515c-2.45,2.588-3.979,6.418-4.932,10.211-.249.99-.458,1.978-.636,2.94q-.068.377-.13.747C731.314,597.024,731.132,598.564,731.01,599.894Z" transform="translate(-664.717 -524.213)" opacity="0.2"/>
      <ellipse id="Ellipse_71" data-name="Ellipse 71" cx="4.253" cy="3.57" rx="4.253" ry="3.57" transform="translate(76.277 17.309)" opacity="0.2"/>
      <ellipse id="Ellipse_72" data-name="Ellipse 72" cx="4.253" cy="3.57" rx="4.253" ry="3.57" transform="translate(74.908 48.037)" opacity="0.2"/>
      <path id="Path_403" data-name="Path 403" d="M677.79,284.084a13.576,13.576,0,0,1-1.089,8.138,15.286,15.286,0,0,1-4.355-7.328,13.576,13.576,0,0,1,1.089-8.138A15.286,15.286,0,0,1,677.79,284.084Z" transform="translate(-614.144 -257.209)" opacity="0.2"/>
      <path id="Path_404" data-name="Path 404" d="M753.175,385.62a22.49,22.49,0,0,1-9.73.534,18.838,18.838,0,0,1,7.845-4.86,22.49,22.49,0,0,1,9.73-.534A18.837,18.837,0,0,1,753.175,385.62Z" transform="translate(-675.395 -348.608)" opacity="0.2"/>
      <path id="Path_405" data-name="Path 405" d="M776.646,626.321a15.686,15.686,0,0,1-6.825.363,13.125,13.125,0,0,1,5.494-3.418,15.686,15.686,0,0,1,6.825-.363A13.125,13.125,0,0,1,776.646,626.321Z" transform="translate(-698.043 -562.098)" opacity="0.2"/>
      <path id="Path_406" data-name="Path 406" d="M701.96,648.27l.172.075C702.116,648.5,702.075,648.594,701.96,648.27Z" transform="translate(-639.773 -584.647)" fill="#2f2e41"/>
      <path id="Path_407" data-name="Path 407" d="M703.235,646.647c0,.017,0,.034.006.051l-.061-.026c0-.015,0-.032.006-.049C703.2,646.416,703.183,646.17,703.235,646.647Z" transform="translate(-640.821 -582.975)" fill="#2f2e41"/>
      <ellipse id="Ellipse_73" data-name="Ellipse 73" cx="23.21" cy="19.482" rx="23.21" ry="19.482" transform="translate(20.845 19.033)" fill="#2f2e41"/>
      <ellipse id="Ellipse_74" data-name="Ellipse 74" cx="14.056" cy="11.798" rx="14.056" ry="11.798" transform="translate(31.91 33.607)" fill="#d0cde1"/>
      <path id="Path_408" data-name="Path 408" d="M458.47,568.45l-.017,0-3.269.658-6.807,1.371-.929.188L437.1,572.756l-.879.178L411.1,577.992a52.024,52.024,0,0,1-4.968-1.878l-.048-.021c-.092-.04-.182-.08-.273-.121q-.3-.132-.6-.268-1.686-.778-3.285-1.663-.411-.226-.814-.459l-.256-.149-.266-.157q-.35-.208-.7-.421c2.44-3.722,8.249-6.2,14.058-7.549,4.385-1.023,5.349-4.384,5.265-7.375a14.7,14.7,0,0,0-.206-2.038,17.185,17.185,0,0,0-.842-3.172l14.057.394,1.45,2.8a5.335,5.335,0,0,0-.038.928c.11,2.3,1.8,3.788,3.89,4.748.271.125.55.241.833.349a25.736,25.736,0,0,0,7.453,1.4,17.077,17.077,0,0,1,3.688.058q.445.057.865.136a13.725,13.725,0,0,1,4.539,1.7,12.72,12.72,0,0,1,1.471,1.024A10.337,10.337,0,0,1,458.47,568.45Z" transform="translate(-380.408 -500.433)" fill="#d0cde1"/>
      <path id="Path_409" data-name="Path 409" d="M753.757,681.022l-.178.138a47.033,47.033,0,0,1-3.908,2.693q-1.368.849-2.807,1.612-.316.169-.636.332-.556.285-1.121.556-.738.356-1.494.689c-.2.091-.409.179-.613.267-.3.129-.6.254-.9.376l-.157.063-.6-.416,7.022-7.2,1.412-1.449a4.32,4.32,0,0,1,1.857.79,18.018,18.018,0,0,1,2.021,1.464C753.687,680.964,753.722,680.992,753.757,681.022Z" transform="translate(-673.587 -611.45)" fill="#d0cde1"/>
      <path id="Path_410" data-name="Path 410" d="M496.388,669.264a1.2,1.2,0,0,1-.079.218,47.023,47.023,0,0,1-3.908,2.693,19.374,19.374,0,0,1-3.645.727s.106.446.2,1.217q-.555.285-1.121.556-.738.356-1.494.689c-.2.091-.408.179-.613.267-.3.129-.6.254-.9.376l-.157.063c-.2.081-.4.159-.6.237a53.6,53.6,0,0,1-8.122,2.419l-.045.01c-.182.039-.366.077-.55.114-.137.028-.276.056-.414.082a.415.415,0,0,1-.052.011c-.284.056-.568.109-.855.158l-.483.084c-.1.018-.2.033-.294.049l-.368.059c-.068.012-.136.021-.2.031l-.465.07c-.263.038-.529.075-.793.108-.192.025-.383.049-.575.071-.226.027-.452.052-.68.076-.062.008-.124.014-.187.02l-.242.025c-.163.017-.325.032-.489.046l-.253.023q-.242.021-.483.039c-.208.017-.416.031-.625.045-.254.017-.507.032-.763.045l-.493.024c-.421.019-.842.032-1.266.042-.211,0-.423.008-.635.011h0c-.211,0-.423,0-.635,0a56.963,56.963,0,0,1-6.424-.361q-2.343-.263-4.611-.714l-.181-.037c-.153-.03-.3-.062-.455-.094l-.4-.088a53.231,53.231,0,0,1-9.979-3.226l-.048-.021c-.092-.04-.182-.079-.273-.121,7.758-1.517,20.019-3.91,30.658-5.96l.889-.171c3.929-.757,7.61-1.462,10.724-2.051l.947-.178c3.346-.631,5.944-1.11,7.353-1.35q.57-.109,1.151-.17l2.941,3.826Z" transform="translate(-416.317 -599.772)" fill="#2f2e41"/>
      <ellipse id="Ellipse_75" data-name="Ellipse 75" cx="6.914" cy="5.803" rx="6.914" ry="5.803" transform="translate(15.907 18.619)" fill="#2f2e41"/>
      <ellipse id="Ellipse_76" data-name="Ellipse 76" cx="6.914" cy="5.803" rx="6.914" ry="5.803" transform="translate(58.376 16.961)" fill="#2f2e41"/>
      <path id="Path_411" data-name="Path 411" d="M662.443,239.8c0-2.963,2.661-5.451,6.172-5.769a7.425,7.425,0,0,0-6.609,2.687,5.027,5.027,0,0,0,0,6.164,7.425,7.425,0,0,0,6.61,2.686C665.105,245.254,662.444,242.767,662.443,239.8Z" transform="translate(-604.561 -219.526)" fill="#2f2e41"/>
      <path id="Path_412" data-name="Path 412" d="M350.323,299.867a5.137,5.137,0,0,1-.4-7.747,5.336,5.336,0,0,0-2.48,5.8,6.422,6.422,0,0,0,5.139,4.4,7.714,7.714,0,0,0,6.961-1.963A7.912,7.912,0,0,1,350.323,299.867Z" transform="translate(-335.228 -270.751)" fill="#2f2e41"/>
      <path id="Path_413" data-name="Path 413" d="M483.684,359.777c-8.182,0-14.815,3.248-14.815,7.254,0,1.793,1.333,3.431,3.534,4.7l2.852-1.735-.776,2.717c.322.125.65.246.993.358l4.261-4.172v5.126a29.559,29.559,0,0,0,3.951.263c8.182,0,14.815-3.248,14.815-7.254S491.866,359.777,483.684,359.777Z" transform="translate(-439.628 -330.381)" fill="#2f2e41"/>
      <path id="Path_414" data-name="Path 414" d="M674.62,303.876s-1.074,4.145,5.636,5.8Z" transform="translate(-616.243 -281.112)" fill="#2f2e41"/>
      <path id="Path_415" data-name="Path 415" d="M438.869,310.235s2.469,4.634-4.938,6.707Z" transform="translate(-409.629 -286.717)" fill="#2f2e41"/>
      <path id="Path_416" data-name="Path 416" d="M1.046,0c.639.027,1.21,1.12,1.275,2.441s-.4,2.371-1.04,2.344S.071,3.665.006,2.344.407-.026,1.046,0Z" transform="translate(30.378 45.774) rotate(-15.639)" fill="#d0cde1"/>
      <path id="Path_417" data-name="Path 417" d="M2.363,0c1.308.006,2.37.542,2.373,1.2S3.681,2.382,2.373,2.376,0,1.834,0,1.177,1.055-.006,2.363,0Z" transform="translate(58.925 48.088) rotate(-86.476)" fill="#d0cde1"/>
    </g>
  </g>
</svg>
