<?xml version="1.0" encoding="utf-8"?>
<!-- Generator: Adobe Illustrator 19.0.0, SVG Export Plug-In . SVG Version: 6.00 Build 0)  -->
<svg version="1.1" id="Layer_1" xmlns="http://www.w3.org/2000/svg" xmlns:xlink="http://www.w3.org/1999/xlink" x="0px" y="0px"
	 viewBox="0 0 500 500" style="enable-background:new 0 0 500 500;" xml:space="preserve">
<style type="text/css">
	.st0{fill:#E6E7E8;}
	.st1{fill:#FF671B;}
	.st2{fill:#FFFFFF;}
	.st3{fill:#6D6F71;}
</style>
<g>
	<g>
		<path class="st0" d="M117.8,217.9H88.3c-9.6,0-17.4,7.8-17.4,17.4v29.5c0,9.6,7.8,17.4,17.4,17.4h29.5c9.6,0,17.4-7.8,17.4-17.4
			v-29.5C135.1,225.7,127.3,217.9,117.8,217.9 M129.5,264.7c0,6.5-5.2,11.7-11.7,11.7H88.3c-4.8,0-8.9-2.9-10.7-7.1l1-0.9l2.1-6.1
			l-4.1-7v-20.1c0-6.5,5.2-11.7,11.7-11.7h29.5c6.5,0,11.7,5.3,11.7,11.7V264.7z"/>
		<path id="XMLID_88_" class="st1" d="M122.8,263.6c0.6,0.2,1.3,0.3,2.1,0.3c3.1,0,4.6-1.2,4.6-2.7c0-1.7-2.4-1.7-2.6-3.3
			c-0.3-1.9-0.1-10.4,3.2-15l2.2,1c0,0,0.6,0.4,1.4,0.3c0.5,0,1-0.2,1.5-0.8c1.2-1.3,4.6-5.6,5.7-7.9c0.3-0.6-4.3-6.3-6.9-8.4
			c-1.8-1.4-4-2.3-6.5-2.3c-4.5,0-8.4,2.9-9.8,6.9c-2.9,2.1-8.6,5.4-14.7,7c-7.1,1.9-14.4,0.1-19.4,0.4c-6.4,0.3-10.2,5-10.1,10.4
			c0.2,5.5,3.9,10.5,3.9,15.7c0,4.1-3.3,5.9-5.6,5.9c-2.7,0-2.9-1.1-3.7-1.1c-0.3,0-0.7,0.3-0.7,0.7c0,1.4,3.4,2.7,5.3,2.7
			c5.1,0,7.2-3.6,7.2-3.6s1.3,3.8,6.3,3.8c4,0,5.7-1.9,5.7-3.5c0-1.3-0.8-1.9-1.4-2.6c-0.8-1.1-0.8-2.4-0.8-2.4s0.9,0.1,2.2,0.1
			c2.9,0,3.8-1.2,3.8-2.3c0-1.5-1.7-1.4-1.7-3.8c0-1.9,1-2.5,1.9-2.5c1,0,4.7,0.4,9.2,0.8c1.5,0.1,5.3,1.6,5.3,7.4v2.1
			c0,3.5,1.4,7.9,7.7,7.9c4.3,0,6.7-2.4,6.7-4.1c0-1.1-1-1.6-1.5-2.3C122.1,266.4,122.8,263.6,122.8,263.6"/>
		<path id="XMLID_87_" class="st2" d="M133.1,238.2c-0.4,0-0.7,0.3-0.7,0.7c0,0.4,0.3,0.7,0.7,0.7c0.4,0,0.7-0.3,0.7-0.7
			C133.9,238.5,133.5,238.2,133.1,238.2"/>
		<path id="XMLID_86_" class="st2" d="M135.7,236c-0.4,0-0.7,0.3-0.7,0.7c0,0.4,0.3,0.7,0.7,0.7c0.4,0,0.7-0.3,0.7-0.7
			C136.4,236.3,136.1,236,135.7,236"/>
		<path id="XMLID_85_" class="st2" d="M136.9,233.5c-0.3,0-0.6,0.2-0.6,0.6c0,0.3,0.2,0.6,0.6,0.6c0.3,0,0.6-0.2,0.6-0.6
			C137.5,233.8,137.2,233.5,136.9,233.5"/>
		<path id="XMLID_84_" class="st2" d="M115.7,237c0.4,0,0.8-0.4,0.8-0.8c0-0.4-0.4-0.8-0.8-0.8s-0.8,0.4-0.8,0.8
			C114.9,236.7,115.3,237,115.7,237"/>
		<path id="XMLID_83_" class="st2" d="M118.8,256.4c-0.4,0-0.8,0.4-0.8,0.8c0,0.4,0.4,0.8,0.8,0.8c0.4,0,0.8-0.4,0.8-0.8
			C119.6,256.7,119.2,256.4,118.8,256.4"/>
		<path id="XMLID_82_" class="st2" d="M123.5,257.2c-0.4,0-0.8,0.4-0.8,0.8c0,0.4,0.4,0.8,0.8,0.8c0.4,0,0.8-0.4,0.8-0.8
			C124.3,257.5,124,257.2,123.5,257.2"/>
		<path id="XMLID_81_" class="st2" d="M119.4,249.1c-0.4,0-0.8,0.4-0.8,0.8c0,0.4,0.4,0.8,0.8,0.8c0.4,0,0.8-0.4,0.8-0.8
			C120.2,249.5,119.9,249.1,119.4,249.1"/>
		<path id="XMLID_80_" class="st2" d="M122.2,243.7c0.4,0,0.8-0.4,0.8-0.8c0-0.4-0.4-0.8-0.8-0.8c-0.4,0-0.8,0.4-0.8,0.8
			C121.4,243.3,121.7,243.7,122.2,243.7"/>
		<path id="XMLID_79_" class="st2" d="M109.7,240.5c0.4,0,0.8-0.4,0.8-0.8c0-0.4-0.4-0.8-0.8-0.8c-0.4,0-0.8,0.4-0.8,0.8
			C108.9,240.1,109.3,240.5,109.7,240.5"/>
		<path id="XMLID_78_" class="st2" d="M114.2,254.7c-0.4,0-0.8,0.4-0.8,0.8c0,0.4,0.4,0.8,0.8,0.8c0.4,0,0.8-0.4,0.8-0.8
			C115,255.1,114.6,254.7,114.2,254.7"/>
		<path id="XMLID_77_" class="st2" d="M112,244.4c0.4,0,0.8-0.4,0.8-0.8c0-0.4-0.4-0.8-0.8-0.8c-0.4,0-0.8,0.4-0.8,0.8
			C111.2,244,111.5,244.4,112,244.4"/>
		<path id="XMLID_76_" class="st2" d="M106.9,248.9c-0.4,0-0.8,0.4-0.8,0.8c0,0.4,0.4,0.8,0.8,0.8c0.4,0,0.8-0.4,0.8-0.8
			C107.7,249.3,107.4,248.9,106.9,248.9"/>
		<path id="XMLID_75_" class="st2" d="M115.2,248.1c0.4,0,0.8-0.4,0.8-0.8c0-0.4-0.4-0.8-0.8-0.8c-0.4,0-0.8,0.4-0.8,0.8
			C114.4,247.7,114.7,248.1,115.2,248.1"/>
		<path id="XMLID_74_" class="st2" d="M102.5,240.9c-0.4,0-0.8,0.4-0.8,0.8c0,0.4,0.4,0.8,0.8,0.8c0.4,0,0.8-0.4,0.8-0.8
			C103.3,241.3,103,240.9,102.5,240.9"/>
		<path id="XMLID_73_" class="st2" d="M104.3,245.1c-0.4,0-0.8,0.4-0.8,0.8c0,0.4,0.4,0.8,0.8,0.8c0.4,0,0.8-0.4,0.8-0.8
			C105.1,245.4,104.7,245.1,104.3,245.1"/>
		<path id="XMLID_72_" class="st2" d="M110.1,252.1c-0.4,0-0.8,0.4-0.8,0.8c0,0.4,0.4,0.8,0.8,0.8c0.4,0,0.8-0.4,0.8-0.8
			C110.9,252.4,110.6,252.1,110.1,252.1"/>
		<path id="XMLID_71_" class="st2" d="M118.4,240.7c0.4,0,0.8-0.4,0.8-0.8c0-0.4-0.4-0.8-0.8-0.8c-0.4,0-0.8,0.4-0.8,0.8
			C117.6,240.4,117.9,240.7,118.4,240.7"/>
		<path id="XMLID_70_" class="st2" d="M124.3,250.6c-0.4,0-0.8,0.4-0.8,0.8c0,0.4,0.4,0.8,0.8,0.8c0.4,0,0.8-0.4,0.8-0.8
			C125,251,124.7,250.6,124.3,250.6"/>
		<path id="XMLID_69_" class="st2" d="M126.3,244.1c-0.4,0-0.8,0.4-0.8,0.8c0,0.4,0.4,0.8,0.8,0.8c0.4,0,0.8-0.4,0.8-0.8
			C127.1,244.5,126.7,244.1,126.3,244.1"/>
		<path id="XMLID_68_" class="st2" d="M125.7,237.5c-0.4,0-0.8,0.4-0.8,0.8c0,0.4,0.4,0.8,0.8,0.8c0.4,0,0.8-0.4,0.8-0.8
			C126.5,237.9,126.2,237.5,125.7,237.5"/>
		<path id="XMLID_67_" class="st2" d="M129.5,238.8c-0.4,0-0.8,0.4-0.8,0.8c0,0.4,0.4,0.8,0.8,0.8c0.4,0,0.8-0.4,0.8-0.8
			C130.3,239.1,130,238.8,129.5,238.8"/>
		<path id="XMLID_66_" class="st2" d="M122.9,235.1c-0.4,0-0.8,0.4-0.8,0.8c0,0.4,0.4,0.8,0.8,0.8c0.4,0,0.8-0.4,0.8-0.8
			C123.7,235.4,123.3,235.1,122.9,235.1"/>
		<path id="XMLID_65_" class="st2" d="M121.3,232.1c-0.4,0-0.8,0.4-0.8,0.8c0,0.4,0.4,0.8,0.8,0.8c0.4,0,0.8-0.4,0.8-0.8
			C122.1,232.4,121.8,232.1,121.3,232.1"/>
		<path id="XMLID_64_" class="st2" d="M124.6,232.1c-0.4,0-0.8,0.4-0.8,0.8c0,0.4,0.4,0.8,0.8,0.8c0.4,0,0.8-0.4,0.8-0.8
			C125.4,232.4,125.1,232.1,124.6,232.1"/>
		<path id="XMLID_63_" class="st2" d="M120.8,229.9c0-0.4,0.3-0.7,0.7-0.7c0.4,0,0.7,0.3,0.7,0.7c0,0.4-0.3,0.7-0.7,0.7
			C121.1,230.5,120.8,230.2,120.8,229.9"/>
		<path id="XMLID_62_" class="st2" d="M122.8,227.4c0-0.3,0.2-0.5,0.5-0.5c0.3,0,0.5,0.2,0.5,0.5c0,0.3-0.2,0.5-0.5,0.5
			C123.1,227.9,122.8,227.7,122.8,227.4"/>
		<path id="XMLID_61_" class="st2" d="M125.4,226.3c0-0.2,0.2-0.4,0.4-0.4c0.2,0,0.4,0.2,0.4,0.4c0,0.2-0.2,0.4-0.4,0.4
			C125.6,226.7,125.4,226.5,125.4,226.3"/>
		<path id="XMLID_60_" class="st2" d="M136.4,231.8c0-0.2,0.2-0.4,0.4-0.4c0.2,0,0.4,0.2,0.4,0.4c0,0.2-0.2,0.4-0.4,0.4
			C136.6,232.2,136.4,232,136.4,231.8"/>
		<path id="XMLID_59_" class="st2" d="M135.8,239.8c0-0.2,0.2-0.4,0.4-0.5c0.2,0,0.4,0.2,0.5,0.4c0,0.2-0.2,0.4-0.4,0.5
			C136,240.2,135.8,240,135.8,239.8"/>
		<path id="XMLID_58_" class="st2" d="M137,238.3c0-0.2,0.2-0.4,0.4-0.5c0.2,0,0.4,0.2,0.5,0.4c0,0.2-0.2,0.4-0.4,0.5
			C137.2,238.7,137,238.5,137,238.3"/>
		<path id="XMLID_57_" class="st2" d="M134.6,241.3c0-0.2,0.2-0.4,0.4-0.5c0.2,0,0.4,0.2,0.5,0.4c0,0.2-0.2,0.4-0.4,0.5
			C134.8,241.8,134.6,241.6,134.6,241.3"/>
		<path id="XMLID_56_" class="st2" d="M133.3,242.8c0-0.2,0.2-0.4,0.4-0.5c0.2,0,0.4,0.2,0.5,0.4c0,0.2-0.2,0.4-0.4,0.5
			C133.5,243.2,133.3,243,133.3,242.8"/>
		<path id="XMLID_55_" class="st2" d="M138,236.7c0-0.2,0.2-0.4,0.4-0.5c0.2,0,0.4,0.2,0.4,0.4c0,0.2-0.2,0.4-0.4,0.5
			C138.2,237.1,138,237,138,236.7"/>
		<path id="XMLID_54_" class="st2" d="M138.8,235.4c0-0.2,0.2-0.4,0.4-0.5c0.2,0,0.4,0.2,0.5,0.4c0,0.2-0.2,0.4-0.4,0.5
			C139,235.8,138.8,235.6,138.8,235.4"/>
		<path id="XMLID_53_" class="st2" d="M88.9,269.2c0,0-2.9-5.1-0.9-10.2c2.2-5.7,8.7-5,8.7-5c-1-0.5-2.2-0.7-3.4-0.7
			c-4.5,0.2-7.9,4.2-7.7,9.1C85.6,265.2,86.9,267.6,88.9,269.2"/>
		<path id="XMLID_52_" class="st2" d="M78.1,253c-1.3-1.3-2-3-2-4.9c0-3.8,3.1-6.7,6.9-6.9c4-0.2,11.2,1,15.8,0.4
			c1.6,7.1,8.7,14.1,14.3,17.2c-6.6-2.9-12.9-9.6-18.5-12.7c-5.8-3.2-11.6-3.7-14.6-0.9C77.4,247.6,77.6,251,78.1,253"/>
		<path id="XMLID_51_" class="st2" d="M94.4,260.3c0.4,2.1-3.4,2.7-3.4,2.7c3.4,0.6,4.6-1.2,4.6-1.2L94.4,260.3z"/>
		<path id="XMLID_50_" class="st2" d="M121.3,261.4L121.3,261.4c0,0-2.2,3.1-0.7,8.8c-0.9,0.9-2.6,1.6-3.9,2c0,0,5.1,0.7,6.7-2.1
			C120.3,267.7,121.2,261.8,121.3,261.4"/>
		<path class="st2" d="M131.5,228.8c-2-0.4-3.8,0.7-4.1,2.3c-0.3,1.6,1.1,3.3,3,3.6c2,0.4,3.8-0.7,4.1-2.3
			C134.8,230.8,133.5,229.2,131.5,228.8 M134,232.3c-0.2,1.2-1.5,1.9-2.9,1.7c-1.4-0.3-2.4-1.4-2.2-2.6c0.2-1.2,1.5-1.9,2.9-1.7
			C133.2,230,134.2,231.2,134,232.3"/>
		<path id="XMLID_47_" class="st2" d="M131.3,231.8c0.1-0.6,0.8-1.1,1.6-0.9c0.8,0.1,1.3,0.8,1.2,1.4c-0.1,0.6-0.8,1.1-1.6,0.9
			C131.7,233.1,131.2,232.5,131.3,231.8"/>
		<path id="XMLID_46_" class="st2" d="M127.1,258.5L127.1,258.5L127.1,258.5c1.2,2.3-2.7,3.1-2.7,3.1c2.7,0.5,4.3-1.3,4.3-2
			C128.1,257.2,127.5,259,127.1,258.5"/>
		<path id="XMLID_45_" class="st2" d="M135.3,230.6c-1-1.7-2.8-2.9-5-2.9c-1.9,0-3.6,1-4.7,2.4c-0.3,0.4-0.9,0.5-1.3,0.1
			c-0.4-0.3-0.4-0.9-0.1-1.3c1.2-1.4,3-2.2,5-2.2C132,226.7,134.3,228.3,135.3,230.6"/>
		<path id="XMLID_44_" class="st2" d="M129.1,242.4c-2-0.1-4.7-1.1-7.1-2.9c-2.1-1.5-3.6-3.3-4.4-5c-0.2-0.3-0.1-0.7,0.2-0.8
			c0.3-0.2,0.7-0.1,0.8,0.2c0.9,1.8,2.2,3.8,4.2,5.4C124.9,241,127.1,242.1,129.1,242.4"/>
		<path id="XMLID_43_" class="st2" d="M126.4,248c-3.7-0.2-7.9-2.2-11.2-5.5c-1.5-1.6-2.7-3.3-3.5-4.9c-0.2-0.3-0.1-0.7,0.2-0.8
			c0.3-0.2,0.7-0.1,0.8,0.2c1,2,2.2,4.2,4.1,6.2C119.7,246,123.2,247.6,126.4,248"/>
		<path id="XMLID_42_" class="st2" d="M105.6,239.6c0.3-0.1,0.7,0.1,0.8,0.4c1.6,3.9,2.4,5.5,5.4,8.7c4.1,4.3,10,5.9,13.2,5.9
			c-2.8,0.2-9.6-1-14.4-6c-2.7-2.8-4.6-5.7-5.5-8.3C105.1,240.1,105.3,239.7,105.6,239.6"/>
		<path id="XMLID_41_" class="st2" d="M127.3,234.9c0.8,0.5,2,1,3.5,1.1c3.3,0.1,4.5-2.5,4.6-3.6c0,0.7-0.9,4.4-5,4.4
			c-1.6,0-2.8-0.3-3.7-0.9c-0.3-0.2-0.4-0.5-0.3-0.8C126.6,234.9,127,234.7,127.3,234.9"/>
	</g>
	<path class="st3" d="M160.6,263.4c0,1.2-0.7,2.2-1.7,2.5c1.1,0.4,2,1.4,2,2.7c0,2.3-1.6,3.4-4.5,3.4h-5.2v-12h4.9
		C158.9,260,160.6,261.1,160.6,263.4 M153.6,265h2.5c1.2,0,2.1-0.2,2.1-1.4c0-1.1-0.9-1.4-2.1-1.4h-2.5V265z M153.6,269.9h2.7
		c1.3,0,2.1-0.3,2.1-1.5c0-1.1-0.8-1.4-2.1-1.4h-2.7V269.9z"/>
	<path class="st3" d="M171.4,272.1l-1-2.8h-5.1l-1,2.8h-2.5l4.7-12h2.9l4.7,12H171.4z M169.5,267l-1.7-4.6L166,267H169.5z"/>
	<polygon id="XMLID_35_" class="st3" points="184,272.1 177.9,264 177.9,272.1 175.5,272.1 175.5,260 177.7,260 183.8,268.1 
		183.8,260 186.2,260 186.2,272.1 	"/>
	<polygon id="XMLID_34_" class="st3" points="191.3,267.1 191.3,272.1 188.9,272.1 188.9,260 191.3,260 191.3,264.9 192.4,264.9 
		196.4,260 199.4,260 194.4,265.9 199.8,272.1 196.7,272.1 192.4,267.1 	"/>
	<path class="st3" d="M217.2,266.1c0,3.6-2.6,6.2-6.3,6.2c-3.7,0-6.3-2.6-6.3-6.2c0-3.6,2.6-6.2,6.3-6.2
		C214.6,259.8,217.2,262.5,217.2,266.1 M207.1,266.1c0,2.3,1.6,3.9,3.8,3.9c2.2,0,3.8-1.6,3.8-3.9c0-2.3-1.6-3.9-3.8-3.9
		C208.7,262.1,207.1,263.7,207.1,266.1"/>
	<polygon id="XMLID_31_" class="st3" points="221.7,267.2 221.7,272.1 219.4,272.1 219.4,260 228.2,260 228.2,262.2 221.7,262.2 
		221.7,265 227.8,265 227.8,267.2 	"/>
	<path id="XMLID_30_" class="st3" d="M244.9,261.7l-1.7,1.7c-0.7-0.8-1.7-1.3-2.9-1.3c-2.2,0-3.8,1.6-3.8,4c0,2.5,1.7,4,3.7,4
		c2,0,3.1-0.9,3.4-2.6h-3.1v-2h5.5c0,0.2,0,0.5,0,0.7c0,3.6-2.5,6.2-5.9,6.2c-3.3,0-6.3-2.4-6.3-6.2c0-3.6,2.7-6.2,6.3-6.2
		C242.3,259.8,243.9,260.5,244.9,261.7"/>
	<polygon id="XMLID_29_" class="st3" points="248.3,272.1 248.3,260 257.2,260 257.2,262.2 250.7,262.2 250.7,264.9 256.9,264.9 
		256.9,267.1 250.7,267.1 250.7,269.9 257.3,269.9 257.3,272.1 	"/>
	<path class="st3" d="M271.7,266.1c0,3.6-2.6,6.2-6.3,6.2c-3.7,0-6.3-2.6-6.3-6.2c0-3.6,2.6-6.2,6.3-6.2
		C269.1,259.8,271.7,262.5,271.7,266.1 M261.6,266.1c0,2.3,1.6,3.9,3.8,3.9c2.2,0,3.8-1.6,3.8-3.9c0-2.3-1.6-3.9-3.8-3.9
		C263.2,262.1,261.6,263.7,261.6,266.1"/>
	<path class="st3" d="M283.3,263.7c0,1.9-1.3,3.3-3.6,3.5h-0.1l3.7,4.8h-2.9l-3.5-4.8h-0.7v4.8h-2.4v-12h5.1
		C281.8,260,283.3,261.4,283.3,263.7 M276.3,265.2h2.6c1.3,0,2-0.5,2-1.5c0-1-0.7-1.5-2-1.5h-2.6V265.2z"/>
	<path id="XMLID_24_" class="st3" d="M295.8,261.7l-1.7,1.7c-0.7-0.8-1.7-1.3-2.9-1.3c-2.2,0-3.8,1.6-3.8,4c0,2.5,1.7,4,3.7,4
		c2,0,3.1-0.9,3.4-2.6h-3.1v-2h5.5c0,0.2,0,0.5,0,0.7c0,3.6-2.5,6.2-5.9,6.2c-3.3,0-6.3-2.4-6.3-6.2c0-3.6,2.7-6.2,6.3-6.2
		C293.2,259.8,294.8,260.5,295.8,261.7"/>
	<rect id="XMLID_23_" x="299.2" y="260" class="st3" width="2.4" height="12"/>
	<path class="st3" d="M312.9,272.1l-1-2.8h-5.1l-1,2.8h-2.5l4.7-12h2.9l4.7,12H312.9z M311,267l-1.7-4.6l-1.8,4.6H311z"/>
	<path id="XMLID_20_" class="st3" d="M151.2,243.6V234h3.2v9.5c0,2.7,1.3,3.9,3.2,3.9c2,0,3.3-1.1,3.3-2.9c0-2.1-2.3-2.5-2.3-5h3.2
		c0.1,1.4,2.4,2,2.4,5.4c0,3.2-2.7,5.5-6.6,5.5C153.8,250.3,151.2,248,151.2,243.6"/>
	<path id="XMLID_19_" class="st3" d="M166.2,243.6v-1h3.2v0.9c0,2.7,1.3,3.9,3.3,3.9c2,0,3.2-1.2,3.2-3.1c0-3.7-5-4.8-5-9.2v-1h3.2
		v0.8c0,3.5,5.2,3.8,5.2,9.4c0,3.9-2.7,6.2-6.6,6.2S166.2,248,166.2,243.6"/>
	<path id="XMLID_18_" class="st3" d="M181.3,244.3v-1h3.2v0.9c0,2,1.3,3.2,3.1,3.2c1.9,0,3.1-1.2,3.1-3.9V241c0-2.2-1.4-2.9-2.8-2.9
		c-1.9,0-2.6,1.2-2.6,2.4v0.3h-3.2v-0.3c0-3,2.3-5.2,5.2-5.2c1.1,0,2.6,0.4,3.4,1.8V234h3.2v9.6c0,4.5-2.6,6.7-6.4,6.7
		C183.9,250.3,181.3,248,181.3,244.3"/>
	<path id="XMLID_17_" class="st3" d="M196.2,243.6v-1h3.2v0.9c0,2.7,1.3,3.9,3.3,3.9c2,0,3.2-1.2,3.2-3.1c0-3.7-5-4.8-5-9.2v-1h3.2
		v0.8c0,3.5,5.2,3.8,5.2,9.4c0,3.9-2.7,6.2-6.6,6.2C198.9,250.3,196.2,248,196.2,243.6"/>
	<path id="XMLID_16_" class="st3" d="M230.6,244.8v5.3h-3.3v-5c0-1.8-0.8-2.8-2.2-2.8c-1.3,0-2.4,0.9-2.4,2.6v3.3h-3.3v-3.3
		c0-1.6-0.8-2.6-2.2-2.6c-1.3,0-2.3,0.9-2.3,2.8v4.9h-3.3v-7.2c0-7.2,5.2-8.8,9.4-8.8h4.8v3h-4.3c-3.5,0-6.3,1.1-6.7,3.7
		c0.7-0.8,1.7-1.4,2.9-1.4c1.3,0,2.7,0.7,3.5,2.5c1-1.8,2.5-2.5,4.3-2.5C228.5,239.3,230.6,241.6,230.6,244.8"/>
	<path class="st3" d="M232.9,243.6v-3.2c0-4.4,2.6-6.7,6.1-6.7c1.9,0,3.9,0.8,4.7,2.8c1-2,2.6-2.8,4.5-2.8c2.8,0,5.4,2.3,5.4,6V250
		h-3.2v-10.3c0-1.9-1.1-3.1-2.6-3.1s-2.5,1.2-2.5,3.1v3.8c0,4.4-2.6,6.7-6.2,6.7C235.5,250.3,232.9,248,232.9,243.6 M242.2,243.4v-3
		c0-2.6-1.3-3.8-3-3.8c-1.7,0-3,1.2-3,3.8v3c0,2.7,1.3,3.9,3,3.9C240.9,247.3,242.2,246.2,242.2,243.4"/>
	<path id="XMLID_13_" class="st3" d="M256.6,244.5v-0.8h3.2v0.6c0,1.7,1.3,3,3.4,3c2.1,0,3.3-0.8,3.3-2.1c0-1.4-1.3-1.9-2.6-1.9
		h-1.7v-2.9h1.7c1.4,0,2.4-0.4,2.4-1.7c0-1.2-1.1-2.2-3.1-2.2c-2.1,0-3.4,1.3-3.4,2.8v0.4h-3.2v-0.6c0-3.1,2.7-5.6,6.7-5.6
		c3.7,0,6.4,2.3,6.4,5c0,1.7-1,2.7-2.5,3.2c1.8,0.3,2.8,1.6,2.8,3.5c0,2.8-2.7,4.9-6.7,4.9C259.2,250.3,256.6,248,256.6,244.5"/>
	<path id="XMLID_12_" class="st3" d="M272.2,244.3v-1h3.2v1c0,1.9,1.3,3.1,3.1,3.1c1.9,0,3.1-1.2,3.1-3.8v-3.1
		c0-2.6-1.3-3.8-3.1-3.8c-1.9,0-3.1,1.2-3.1,3.1v0.3h-3.2v-0.3c0-3.8,2.6-6,6.4-6c3.7,0,6.3,2.3,6.3,6.7v3.2c0,4.5-2.6,6.7-6.3,6.7
		C274.8,250.3,272.2,248,272.2,244.3"/>
	<path id="XMLID_11_" class="st3" d="M287.2,241.2v-2c0-3.2,2.2-5.5,5.1-5.5c1.4,0,3.3,0.7,4.1,2.5c0.8-1.8,2.6-2.5,3.9-2.5
		c1.2,0,3,0.7,3.7,2.5c0.9-1.8,2.6-2.5,4.2-2.5c2.9,0,5,2.3,5,5.5v4.2H310v-4.2c0-1.8-0.8-2.8-2.1-2.8c-1.2,0-2.3,0.9-2.3,2.6v3.9
		h-3.2V239c0-1.6-1-2.6-2.2-2.6c-1.2,0-2.2,0.9-2.2,2.6v3.9h-3.2V239c0-1.6-0.8-2.6-2.1-2.6c-1.2,0-2.2,0.9-2.2,2.8v1.6
		c0,4.2,1.8,6.2,7.5,6.2h10.5v3h-11C292.8,250,287.2,248.4,287.2,241.2"/>
	<path id="XMLID_10_" class="st3" d="M334.9,239.1V250h-3.3v-10.6c0-1.8-0.8-2.8-2.2-2.8c-1.3,0-2.4,0.9-2.4,2.6v6.7h-3.3v-6.7
		c0-1.6-0.8-2.6-2.2-2.6c-1.3,0-2.3,0.9-2.3,2.8V250h-3.3v-10.9c0-3.2,2.3-5.5,5.3-5.5c1.5,0,3.4,0.7,4.2,2.5
		c0.9-1.8,2.6-2.5,4.4-2.5C332.9,233.7,334.9,236,334.9,239.1"/>
	<path id="XMLID_9_" class="st3" d="M338.2,243.6V234h3.2v9.5c0,2.7,1.3,3.9,3.2,3.9c2,0,3.3-1.1,3.3-2.9c0-2.1-2.3-2.5-2.3-5h3.2
		c0.1,1.4,2.4,2,2.4,5.4c0,3.2-2.7,5.5-6.6,5.5S338.2,248,338.2,243.6"/>
	<path class="st3" d="M372,244.8c0,3.2-2.6,5.6-6.5,5.6c-3.9,0-6.4-2.3-6.4-5.6c0-2.9,2-5,5.2-5.5v-1.1c0-1.7-2-1.7-2-4.2h3.2
		c0,1.5,2,1.7,2,3.7v1.8C370.2,240.1,372,242.1,372,244.8 M368.6,244.7c0-1.7-1.3-2.8-3.2-2.8c-1.9,0-3.1,1.2-3.1,2.8
		c0,1.7,1.3,2.9,3.1,2.9C367.4,247.5,368.6,246.4,368.6,244.7"/>
	<path id="XMLID_6_" class="st3" d="M374,243.6v-1h3.2v0.9c0,2.7,1.3,3.9,3.3,3.9c2,0,3.2-1.2,3.2-3.1c0-3.7-5-4.8-5-9.2v-1h3.2v0.8
		c0,3.5,5.2,3.8,5.2,9.4c0,3.9-2.7,6.2-6.6,6.2C376.6,250.3,374,248,374,243.6"/>
	<path class="st3" d="M389.3,244.7v-6.1c0-3,2.8-4.6,5.5-4.6h6.3v2.7h-5.8c-1.4,0-2.8,0.7-2.8,2.2v2.1c0.6-1,1.8-1.8,3.9-1.8
		c3,0,5.7,2.2,5.7,5.5c0,3.2-2.7,5.6-6.4,5.6C391.9,250.3,389.3,248,389.3,244.7 M398.8,244.7c0-1.6-1.3-2.8-3.1-2.8
		c-1.9,0-3.2,1.2-3.2,2.8c0,1.7,1.3,2.9,3.2,2.9C397.6,247.5,398.8,246.4,398.8,244.7"/>
	<path id="XMLID_3_" class="st3" d="M404.1,244.4v-0.7h3.2v0.5c0,1.9,1.3,3.1,3.4,3.1c2.1,0,3.3-0.8,3.3-2.6c0-1.7-1.3-2.4-3.4-2.4
		h-1.4v-2.9h1.7c1.9,0,2.7-0.8,2.7-2.5v-3h3.2v3.4c0,1.7-1,2.9-2.8,3.5c1.8,0.5,3.2,1.7,3.2,4.3c0,2.9-2.7,5.2-6.7,5.2
		C406.7,250.3,404.1,248,404.1,244.4"/>
	<path id="XMLID_2_" class="st3" d="M420,240.3c0-4.3,2.6-6.6,6.2-6.6c3.6,0,6.2,2.3,6.2,6.6v9.7h-3.2v-9.7c0-2.5-1.3-3.7-3-3.7
		c-1.7,0-3,1.2-3,3.7v9.7H420V240.3z"/>
</g>
</svg>
