<svg xmlns="http://www.w3.org/2000/svg" width="508" height="347" viewBox="0 0 508 347">
  <g id="Layer_1" data-name="Layer 1" transform="translate(-7.48 -2.86)">
    <circle id="Ellipse_119" data-name="Ellipse 119" cx="20" cy="20" r="20" transform="translate(63.48 143.86)" fill="rgba(233,103,112,0.2)"/>
    <circle id="Ellipse_120" data-name="Ellipse 120" cx="13.5" cy="13.5" r="13.5" transform="translate(36.48 174.86)" fill="rgba(233,103,112,0.2)"/>
    <circle id="Ellipse_121" data-name="Ellipse 121" cx="7.5" cy="7.5" r="7.5" transform="translate(44.48 149.86)" fill="rgba(233,103,112,0.2)"/>
    <circle id="Ellipse_122" data-name="Ellipse 122" cx="20" cy="20" r="20" transform="translate(475.48 278.86)" fill="rgba(233,103,112,0.2)"/>
    <circle id="Ellipse_123" data-name="Ellipse 123" cx="7.5" cy="7.5" r="7.5" transform="translate(7.48 54.86)" fill="rgba(233,103,112,0.2)"/>
    <circle id="Ellipse_124" data-name="Ellipse 124" cx="35.5" cy="35.5" r="35.5" transform="translate(104.48 261.86)" fill="rgba(233,103,112,0.2)"/>
    <path id="Path_815" data-name="Path 815" d="M24,0A24,24,0,1,1,0,24,24,24,0,0,1,24,0Z" transform="translate(350.48 301.86)" fill="rgba(233,103,112,0.2)"/>
    <path id="Path_818" data-name="Path 818" d="M13,0A13,13,0,1,1,0,13,13,13,0,0,1,13,0Z" transform="translate(453.48 188.86)" fill="rgba(233,103,112,0.2)"/>
    <circle id="Ellipse_128" data-name="Ellipse 128" cx="12.5" cy="12.5" r="12.5" transform="translate(118.48 2.86)" fill="rgba(233,103,112,0.2)"/>
    <path id="Path_817" data-name="Path 817" d="M12.5,0A12.5,12.5,0,1,1,0,12.5,12.5,12.5,0,0,1,12.5,0Z" transform="translate(78.48 251.86)" fill="rgba(233,103,112,0.2)"/>
    <circle id="Ellipse_130" data-name="Ellipse 130" cx="12.5" cy="12.5" r="12.5" transform="translate(481.48 106.86)" fill="rgba(233,103,112,0.2)"/>
    <circle id="Ellipse_131" data-name="Ellipse 131" cx="13.5" cy="13.5" r="13.5" transform="translate(460.48 317.86)" fill="rgba(233,103,112,0.2)"/>
    <circle id="Ellipse_132" data-name="Ellipse 132" cx="7.5" cy="7.5" r="7.5" transform="translate(496.48 330.86)" fill="rgba(233,103,112,0.2)"/>
  </g>
</svg>
